<svg id="parent" height="1024" width="1024" viewbox="0 0 1024 1024" xmlns="http://www.w3.org/2000/svg"  xmlns:xlink="http://www.w3.org/1999/xlink">
  <defs>
    <clipPath id="clipCircle">
      <circle cx="512" cy="512" r="465"/>
    </clipPath>
    <clipPath id="camoClip">
        <!-- <path d="m 23.5 465 c 0 -232.5 209 -441.5 441.5 -441.5 c 232.5 0 441.5 209 441.5 441.5 c 0 232.5 -209 441.5 -441.5 441.5 c -232.5 0 -441.4 -209 -441.5 -441.5Z
        M770,420c25,50 75,-50 100,0q25,50 70,0c55,-51 55,100 30,130q-20,35 -50,20q-35,-30 -80,-5t-40,-45c-20,-50 -80,-10 -65,-100c5,-30 25,-20 35,0z
        M 679 729 c -40 39 71 56 31 95 q -40 39 22 67 c 65 37 -78 83 -114 69 q -39 -8 -34 -41 q 18 -43 -20 -78 t 30 -52 c 41 -34 -15 -79 75 -93 c 30 -5 27 18 11 33 z
        M 357 738 c -49 -26 -31 85 -81 59 q -49 -26 -57 42 c -15 73 -103 -49 -101 -87 q -4 -40 28 -45 q 46 4 68 -43 t 59 12 c 45 28 70 -39 112 43 c 14 27 -9 31 -28 21 z
        M 249 434 c 10 -55 -90 -3 -81 -59 q 10 -55 -58 -41 c -74 8 15 -113 52 -123 q 37 -16 51 13 q 10 45 62 51 t 7 60 c -13 51 59 55 -6 120 c -21 22 -32 1 -29 -20 z
        M 505 238 c 55 -7 -25 -87 31 -95 q 55 -7 21 -68 c -30 -68 112 -21 133 11 q 27 30 3 53 q -40 23 -29 75 t -55 25 c -53 3 -34 73 -116 31 c -27 -13 -11 -30 10 -34 z" transform="translate(50 50)" clip-rule="evenodd"/> -->
        <path d="M0,0 h1024 v1024 h-1024 v-1024z
        M770,420c25,50 75,-50 100,0q25,50 70,0c55,-51 55,100 30,130q-20,35 -50,20q-35,-30 -80,-5t-40,-45c-20,-50 -80,-10 -65,-100c5,-30 25,-20 35,0z
        M 679 729 c -40 39 71 56 31 95 q -40 39 22 67 c 65 37 -78 83 -114 69 q -39 -8 -34 -41 q 18 -43 -20 -78 t 30 -52 c 41 -34 -15 -79 75 -93 c 30 -5 27 18 11 33 z
        M 357 738 c -49 -26 -31 85 -81 59 q -49 -26 -57 42 c -15 73 -103 -49 -101 -87 q -4 -40 28 -45 q 46 4 68 -43 t 59 12 c 45 28 70 -39 112 43 c 14 27 -9 31 -28 21 z
        M 249 434 c 10 -55 -90 -3 -81 -59 q 10 -55 -58 -41 c -74 8 15 -113 52 -123 q 37 -16 51 13 q 10 45 62 51 t 7 60 c -13 51 59 55 -6 120 c -21 22 -32 1 -29 -20 z
        M 505 238 c 55 -7 -25 -87 31 -95 q 55 -7 21 -68 c -30 -68 112 -21 133 11 q 27 30 3 53 q -40 23 -29 75 t -55 25 c -53 3 -34 73 -116 31 c -27 -13 -11 -30 10 -34 z" transform="rotate(40 512 512)" clip-rule="evenodd"/>
    </clipPath>
    <linearGradient id="camoGrad" gradientTransform="rotate(50)">
      <stop offset="25%" stop-color="rgb(210,210,210)" />
      <stop offset="50%" stop-color="rgb(220,220,220)" />
      <stop offset="75%" stop-color="rgb(190,190,190)" />
      <stop offset="100%" stop-color="rgb(195,195,195)" />
    </linearGradient>
    <linearGradient id="camoGrad2">
      <stop offset="0%" stop-color="rgb(80,80,80)" />
      <stop offset="30%" stop-color="rgb(110,110,110)" />
      <stop offset="70%" stop-color="rgb(130,130,130)" />
      <stop offset="100%" stop-color="rgb(90,90,90)" />
    </linearGradient>
    <linearGradient id="camoGrad3" gradientTransform="rotate(95)">
      <stop offset="5%" stop-color="rgb(90,90,90)" />
      <stop offset="45%" stop-color="rgb(60,60,60)" />
      <stop offset="85%" stop-color="rgb(50,50,50)" />
      <stop offset="100%" stop-color="rgb(65,65,65)" />
    </linearGradient>
    <linearGradient id="camoGrad4" gradientTransform="rotate(105)">
      <stop offset="5%" stop-color="rgb(160,160,160)" />
      <stop offset="35%" stop-color="rgb(130,130,130)" />
      <stop offset="75%" stop-color="rgb(100,100,100)" />
      <stop offset="100%" stop-color="rgb(120,120,120)" />
    </linearGradient>
    <linearGradient id="hatGrad">
      <stop offset="0%" stop-color="#000000" />
      <stop offset="25%" stop-color="#3c3c3c" />
      <stop offset="50%" stop-color="#6f6f6f" />
      <stop offset="55%" stop-color="#6f6f6f" />
      <stop offset="75%" stop-color="#3c3c3c" />
      <stop offset="100%" stop-color="#000000" />
    </linearGradient>
    <linearGradient id="bodyGrad">
      <stop offset="1%" stop-color="#1f1f1f" />
      <stop offset="75%" stop-color="#3c3c3c" />
    </linearGradient>
    <linearGradient id="macGrad" gradientTransform="rotate(90)">
      <stop offset="10%" stop-color="#cfcfcf" />
      <stop offset="95%" stop-color="#7e7e82" />
    </linearGradient>
    <linearGradient id="faceGrad" gradientTransform="rotate(90)">
      <stop offset="10%" stop-color="#a9825a" />
      <stop offset="30%" stop-color="#c5845c" />
      <stop offset="80%" stop-color="#e5ac79" />
      <stop offset="85%" stop-color="#ffd9ae" />
    </linearGradient>
    <linearGradient id="earGrad" gradientTransform="rotate(90)">
      <stop offset="10%" stop-color="#ffd9ae" />
      <stop offset="55%" stop-color="#e5ac79" />
    </linearGradient>
    <linearGradient id="shadowGrad" gradientTransform="rotate(90)">
      <stop offset="0%" stop-color="#a68642" />
      <stop offset="90%" stop-color="#7d5524" />
    </linearGradient>
    <linearGradient id="eyeGrad" gradientTransform="rotate(90)">
      <stop offset="50%" stop-color="#000000" />
      <stop offset="75%" stop-color="#ffffff" />
    </linearGradient>
    <linearGradient id="browGrad" gradientTransform="rotate(15)">
      <stop offset="50%" stop-color="#4d3120" />
      <stop offset="75%" stop-color="#5c3b2a" />
    </linearGradient>
    <linearGradient id="noseHL" gradientTransform="rotate(90)">
      <stop offset="0%" stop-color="rgba(255,255,255,0.1)" />
      <stop offset="60%" stop-color="rgba(255,255,255,0.15)" />
      <stop offset="100%" stop-color="rgba(255,255,255,0.68)" />
    </linearGradient>
    <linearGradient id="glassesGrad" gradientTransform="rotate(90)">
      <stop stop-color="#202020" />
      <stop offset="33%" stop-color="#4a4d4d" />
    </linearGradient>
    <linearGradient id="piercingGrad" gradientTransform="rotate(90)">
      <stop stop-color="#0000ff" />
      <stop offset="33%" stop-color="#020d2f" />
    </linearGradient>
  </defs>


  <!-- LAYER 1 -->

  <g id="layer1">
    <circle r="504" cx="512" cy="512" style="stroke:black;fill:none;stroke-width:12px" transform-origin="center" transform="scale(0)">
      <animateTransform id="circleAnim1" attributType="XML" attributeName="transform" type="scale" values="0;1" dur="1s" begin="0s" repeatCount="1" fill="freeze" />     
    </circle>
    <circle r="483" cx="512" cy="512" style="stroke:black;fill:none;stroke-width:8px" transform-origin="center" transform="scale(0)">
      <animateTransform id="circleAnim2" attributType="XML" attributeName="transform" type="scale" values="0;1" dur="1s" begin="circleAnim1.end-1s" repeatCount="1" fill="freeze" />     
    </circle>
    <circle r="465" cx="512" cy="512" style="stroke:black;fill:none;stroke-width:4px" transform-origin="center" transform="scale(0)">
      <animateTransform id="circleAnim3" attributType="XML" attributeName="transform" type="scale" values="0;1" dur="1s" begin="circleAnim2.end-1s" repeatCount="1" fill="freeze" />     
    </circle>
  </g>


  <!-- LAYER 2 -->

  <circle id="layer2" r="465" cx="512" cy="512" style="stroke:black;fill:black;" transform-origin="center" transform="scale(0)" clip-path="url(#camoClip)">
    <animateTransform id="circleAnim4" attributType="XML" attributeName="transform" type="scale" values="0;1" dur="1s" begin="circleAnim3.end-1s" repeatCount="1" fill="freeze" />     
  </circle>


  <!-- LAYER 3 -->

  <g id="layer3" clip-path="url(#clipCircle)"> 
    <g fill-opacity="0" stroke-width="0" fill="url(#camoGrad)" stroke="url(#camoGrad)">
      <path d="M770,420c25,50 75,-50 100,0q25,50 70,0c55,-51 55,100 30,130q-20,35 -50,20q-35,-30 -80,-5t-40,-45c-20,-50 -80,-10 -65,-100c5,-30 25,-20 35,0z" />
      <path d="M770,420c25,50 75,-50 100,0q25,50 70,0c55,-51 55,100 30,130q-20,35 -50,20q-35,-30 -80,-5t-40,-45c-20,-50 -80,-10 -65,-100c5,-30 25,-20 35,0z" transform="rotate(72 512 512)" />
      <path d="M770,420c25,50 75,-50 100,0q25,50 70,0c55,-51 55,100 30,130q-20,35 -50,20q-35,-30 -80,-5t-40,-45c-20,-50 -80,-10 -65,-100c5,-30 25,-20 35,0z" transform="rotate(144 512 512)" />
      <path d="M770,420c25,50 75,-50 100,0q25,50 70,0c55,-51 55,100 30,130q-20,35 -50,20q-35,-30 -80,-5t-40,-45c-20,-50 -80,-10 -65,-100c5,-30 25,-20 35,0z" transform="rotate(216 512 512)" />
      <path d="M770,420c25,50 75,-50 100,0q25,50 70,0c55,-51 55,100 30,130q-20,35 -50,20q-35,-30 -80,-5t-40,-45c-20,-50 -80,-10 -65,-100c5,-30 25,-20 35,0z" transform="rotate(288 512 512)" />
      <animate id="strokeAnim1" attributeName="stroke-dasharray" values="0% 100%;100% 0%" dur="1.5s" begin="circleAnim4.end" repeatCount="1" calcMode="linear"/>
      <animate attributeName="fill-opacity" values="0;1" dur="2s" begin="circleAnim4.end+1s" repeatCount="1" fill="freeze" />
      <animate attributeName="stroke-width" values="5;1" dur="2s" begin="circleAnim4.end" repeatCount="1" fill="freeze" />
    </g>
    <g fill-opacity="0" stroke-width="0" fill="url(#camoGrad2)" stroke="url(#camoGrad2)">
      <path d="M200,150c-30,-85 90,-40 110,0q60,70 90,0c35,-65 75,100 40,130c5,0 -30,30 -60,20c-60,-40 -55,75 -90,0c-50,-100 -80,25 -150,-70c0,-30 70,-5 -15,-95z" />
      <path d="M200,150c-30,-85 90,-40 110,0q60,70 90,0c35,-65 75,100 40,130c5,0 -30,30 -60,20c-60,-40 -55,75 -90,0c-50,-100 -80,25 -150,-70c0,-30 70,-5 -15,-95z" transform="rotate(60 512 512)" />
      <path d="M200,150c-30,-85 90,-40 110,0q60,70 90,0c35,-65 75,100 40,130c5,0 -30,30 -60,20c-60,-40 -55,75 -90,0c-50,-100 -80,25 -150,-70c0,-30 70,-5 -15,-95z" transform="rotate(120 512 512)" />
      <path d="M200,150c-30,-85 90,-40 110,0q60,70 90,0c35,-65 75,100 40,130c5,0 -30,30 -60,20c-60,-40 -55,75 -90,0c-50,-100 -80,25 -150,-70c0,-30 70,-5 -15,-95z" transform="rotate(180 512 512)" />
      <path d="M200,150c-30,-85 90,-40 110,0q60,70 90,0c35,-65 75,100 40,130c5,0 -30,30 -60,20c-60,-40 -55,75 -90,0c-50,-100 -80,25 -150,-70c0,-30 70,-5 -15,-95z" transform="rotate(240 512 512)" />
      <path d="M200,150c-30,-85 90,-40 110,0q60,70 90,0c35,-65 75,100 40,130c5,0 -30,30 -60,20c-60,-40 -55,75 -90,0c-50,-100 -80,25 -150,-70c0,-30 70,-5 -15,-95z" transform="rotate(300 512 512)" />
      <animate id="strokeAnim2" attributeName="stroke-dasharray" values="0% 100%;100% 0%" dur="1.5s" repeatCount="1" calcMode="linear" begin="strokeAnim1.end-2s" />
      <animate attributeName="fill-opacity" from="0" to="1" dur="2s" begin="strokeAnim1.end-1s" repeatCount="1" fill="freeze" calcMode="linear" />
      <animate attributeName="stroke-width" values="5;1" dur="2s" begin="strokeAnim1.end" repeatCount="1" fill="freeze" />
    </g>
    <g clip-path="url(#clipCircle)" fill-opacity="0" stroke-width="0" fill="url(#camoGrad3)" stroke="url(#camoGrad3)">
      <path d="m 350 425 c -50 -31 30 -23 32 -51 q 14 -71 50 -27 c 21 56 10 -90 67 -40 c 34 53 96 -59 104 49 c -58 89 87 60 -25 168 c -84 102 -70 -35 -162 7 c -151 41 20 -27 -44 -94 z" />
      <path d="m 425 565 c 41 -64 64 44 111 8 c 102 -79 23 50 84 113 c 112 20 -8 131 -81 17 c -40 -47 5 102 -48 88 c -55 19 -5 -58 -80 -78 c -72 -9 37 -80 12 -147 z" />
      <animate id="strokeAnim4" attributeName="stroke-dasharray" values="0% 100%;100% 0%" dur="1.5s" repeatCount="1" calcMode="linear" begin="strokeAnim3.end-2s" />
      <animate attributeName="fill-opacity" from="0" to="1" dur="2s" begin="strokeAnim3.end-1s" repeatCount="1" fill="freeze" calcMode="linear" />
      <animate attributeName="stroke-width" values="5;1" dur="2s" begin="strokeAnim3.end-2s" repeatCount="1" fill="freeze" />
    </g>
    <g clip-path="url(#clipCircle)" fill-opacity="0" stroke-width="0" fill="url(#camoGrad4)" stroke="url(#camoGrad4)">
      <path d="M 270 250 c 7 -30 45 -40 55 10 s 12.5 0 64 -2 s 30 38 65 30 s 15 25 28 38 s -32 47 -50 20 s -60 15 -57 39 s -50 20 -58 0 s -32 7 -45 15 q -52 33 5 -50 q 5 -20 -20 -40 c -40 -40 -1 -18 13 -60 z" />
      <path d="M 290 250 c 7 -30 45 -40 55 10 s 12.5 0 64 -2 s 30 38 65 30 s 15 25 28 38 s -32 47 -50 20 s -60 15 -57 39 s -50 20 -58 0 s -32 7 -45 15 q -52 33 5 -50 q 5 -20 -20 -40 c -40 -40 -1 -18 13 -60 z" transform="rotate(90 512 512)" />
      <path d="M 270 250 c 7 -30 45 -40 55 10 s 12.5 0 64 -2 s 30 38 65 30 s 15 25 28 38 s -32 47 -50 20 s -60 15 -57 39 s -50 20 -58 0 s -32 7 -45 15 q -52 33 5 -50 q 5 -20 -20 -40 c -40 -40 -1 -18 13 -60 z" transform="rotate(180 512 512)" />
      <path d="M 290 250 c 7 -30 45 -40 55 10 s 12.5 0 64 -2 s 30 38 65 30 s 15 25 28 38 s -32 47 -50 20 s -60 15 -57 39 s -50 20 -58 0 s -32 7 -45 15 q -52 33 5 -50 q 5 -20 -20 -40 c -40 -40 -1 -18 13 -60 z" transform="rotate(270 512 512)" />
      <animate id="strokeAnim3" attributeName="stroke-dasharray" values="0% 100%;100% 0%" dur="1.5s" repeatCount="1" calcMode="linear" begin="strokeAnim2.end-2s" />
      <animate attributeName="fill-opacity" from="0" to="1" dur="2s" begin="strokeAnim2.end-1s" repeatCount="1" fill="freeze" calcMode="linear" />
      <animate attributeName="stroke-width" values="5;1" dur="2s" begin="strokeAnim2.end-2s" repeatCount="1" fill="freeze" />
    </g>
    
  </g>
    

  <!-- LAYER 4 --> 
<g transform="translate(0, 75)">
  <g id="layer4" transform="scale(0)" opacity="0" transform-origin="center">
    <g id="face">
      <g id="ears">
        <g id="leftEar">
          <path id="leftOne" d="M414,310 c-25,-16 -20,25 5,52" style="fill: url('#faceGrad'); stroke: url(#faceGrad); stroke-width: 3;" gradientUnits="userSpaceOnUse"/>
          <path id="leftTwo" d="M414,310 c-25,-16 -20,25 5,50" style="fill: none; stroke: url(#earGrad); stroke-width: 5;" gradientUnits="userSpaceOnUse"/> 
          <circle id="leftThree" cx="405" cy="344" r="2" style="fill:url(#piercingGrad);stroke-width:1px" gradientUnits="userSpaceOnUse"  />  
          <circle id="leftFour" cx="403" cy="340" r="2" style="fill:url(#piercingGrad);stroke-width:1px" gradientUnits="userSpaceOnUse"  />  
          <circle id="leftFive" cx="401" cy="336" r="2" style="fill:url(#piercingGrad);stroke-width:1px" gradientUnits="userSpaceOnUse"  /> 
          <circle id="leftSix" cx="411" cy="352.25" r="5.5" style="fill:url(#piercingGrad);stroke-width:1px" gradientUnits="userSpaceOnUse"  />
          <g id="leftTragus" transform="translate(0,-1.5)">
            <circle id="leftSeven" cx="411" cy="336" r="2" style="fill:url(#piercingGrad);stroke-width:1px" gradientUnits="userSpaceOnUse"  /> 
            <circle id="leftEight" cx="411" cy="331" r="2" style="fill:url(#piercingGrad);stroke-width:1px" gradientUnits="userSpaceOnUse"  /> 
          </g>
          <circle id="leftNine" cx="403" cy="312" r="2" style="fill:url(#piercingGrad);stroke-width:1px" gradientUnits="userSpaceOnUse"  /> 
        </g>
        <g id="rightEar">
          <path id="rightOne" transform="scale(-1, 1)" transform-origin="center" d="M414,310 c-25,-16 -20,25 5,52" style="fill: url('#faceGrad'); stroke: url(#faceGrad); stroke-width: 3;" gradientUnits="userSpaceOnUse"/>
          <path id="rightTwo" transform="scale(-1, 1)" transform-origin="center" d="M414,310 c-25,-16 -20,25 5,50" style="fill: none; stroke: url(#earGrad); stroke-width: 5;" gradientUnits="userSpaceOnUse"/>  
          <circle id="rightThree" transform="scale(-1, 1)" transform-origin="center" cx="403" cy="342" r="2" style="fill:url(#piercingGrad);stroke-width:1px" gradientUnits="userSpaceOnUse" /> 
          <g id="rightTragus" transform="translate(0,-1.5)">
            <circle id="rightFour" transform="scale(-1, 1)" transform-origin="center" cx="411" cy="332" r="2" style="fill:url(#piercingGrad);stroke-width:1px" gradientUnits="userSpaceOnUse" />
            <circle id="rightFive" transform="scale(-1, 1)" transform-origin="center" cx="410" cy="335" r="2" style="fill:url(#piercingGrad);stroke-width:1px" gradientUnits="userSpaceOnUse" />
            <circle id="rightSix" transform="scale(-1, 1)" transform-origin="center" cx="410" cy="329" r="2" style="fill:url(#piercingGrad);stroke-width:1px" gradientUnits="userSpaceOnUse"  />
          </g>
          <circle id="rightSeven" transform="scale(-1, 1)" transform-origin="center" cx="411" cy="352.25" r="5.5" style="fill:url(#piercingGrad);stroke-width:1px" gradientUnits="userSpaceOnUse" />
          <circle id="rightEight" transform="scale(-1, 1)" transform-origin="center" cx="406" cy="339" r="2" style="fill:url(#piercingGrad);stroke-width:1px" gradientUnits="userSpaceOnUse"  />
        </g>
      </g>
      <path id="mainFace" d="M409.6,300 L512,260 L 614.4,300 Q614.4,330 606,380 H418 Q409.6,330 409.6,300" style="fill: url('#faceGrad'); stroke: url(#shadowGrad); stroke-width: 2;" gradientUnits="userSpaceOnUse"/>
      <g id="eyes" >
        <g id="left" transform="translate(-1,1) rotate(5, 512, 358.4)">
          <path id="leftEyeOne" d="M439.5,338 q20,-25 50,-2 q-25,30 -48, 1" style="fill: #ffffff; stroke:#ffffff;stroke-width:1;opacity:0.35" gradientUnits="userSpaceOnUse"/>
          <path id="leftEyeTwo" d="M441,339 Q462,313 492,336 Q462,356 441, 339" style="fill: #efefef; stroke: url(#eyeGrad); stroke-width: 1;" gradientUnits="userSpaceOnUse"/> 
          <circle id="leftEyeThree" cx="467" cy="336" r="8.5" style="fill: black; stroke: #0e2089; stroke-width: 4.5;"/>
          <circle id="leftEyeFour" cx="469" cy="342" r="3.5" style="fill: white; stroke-width: 0;"/>
          <circle id="leftEyeFive" cx="468.5" cy="341" r="4.5" style="fill: rgba(255,255,255,0.4); stroke-width: 0;"/>
          <path id="leftLash" d="M440,337Q440,338,436,335L446,333Q446,334,442,331L452,329Q452,330,448,327L458,325Q473,317,493,337Q466,312,441,339Z " style="fill: #black; stroke:black; stroke-width: 1.1; opacity:0.95" gradientUnits="userSpaceOnUse"/>
        </g>
        <g id="right" transform="translate(1,1) rotate(-5, 512, 358.4)">
          <path id="rightEyeOne" transform="scale(-1, 1)" transform-origin="center" d="M439.5,338 q20,-25 50,-2 q-25,30 -48, 1 " style="fill: #ffffff; stroke:#ffffff;stroke-width:1;opacity:0.35" gradientUnits="userSpaceOnUse" />
          <path id="rightEyetwo" transform="scale(-1, 1)" transform-origin="center" d="M441,339 Q462,313 492,336 Q462,356 441, 339" style="fill: #efefef; stroke: url(#eyeGrad); stroke-width: 1;" gradientUnits="userSpaceOnUse"/>   
          <circle id="rightEyeThree" transform="scale(-1, 1)" transform-origin="center" cx="467" cy="336" r="8.5" style="fill: black; stroke: #0e2089; stroke-width:4.5;"/>
          <circle id="rightEyeFour" cx="469" cy="342" r="3.5" style="fill: white; stroke-width: 0;" transform="scale(-1, 1)" transform-origin="center"/>
          <circle id="rightEyeFive" cx="468.5" cy="341" r="4.5" style="fill: rgba(255,255,255,0.4); stroke-width: 0;" transform="scale(-1, 1)" transform-origin="center"/>
          <path id="rightLash" transform="scale(-1 1)" transform-origin="center" d="M440,337Q440,338,436,335L446,333Q446,334,442,331L452,329Q452,330,448,327L458,325Q473,317,493,337Q466,312,441,339Z" style="fill: #black; stroke:black; stroke-width: 1; opacity:0.95" gradientUnits="userSpaceOnUse"/>
        </g>
        <g id="brows" transform="translate(0,-0.25)">
          <path id="leftBrow" d="M426,317 q2,-2 8,-3 q-3,-1 -6,1 q2,-2 8,-3 q-3,-1 -6,1 q2,-2 8,-3 q-3,-1 -6,1 q2,-2 8,-3 q-3,-1 -5,1 q2,-2 8,-3 q-3,-1 -5,0 q2,-2 8,-2 q-3,-1 -5,0 q3,0 7,0 q-2,-2 -5,-2 q5,-2 15,2 q-6,-3 -8,-4 q3,-1 15,3 q-6,-3 -8,-4 q5,-2 15,4 q-6,-3 -3,-3 q3,-2 13,5 q-3,-4 -4,-4 q2,-1 5,4 q-1,-2 -1,-3 q1,-1 4,2 q1,-2 0,-2 q2,-1 4,4 q1,-2 1,-4 q1,-1 3,6 q1,-2 0,-4 q1,-2 2,5 q1,5 -1,8 q-35 -10 -48, -6z" style="fill: url(#browGrad); stroke:url(#browGrad); stroke-width: 1;" gradientUnits="userSpaceOnUse" />
          <path id="rightBrow" transform="scale(-1, 1)" transform-origin="center" d="M426,317 q2,-2 8,-3 q-3,-1 -6,1 q2,-2 8,-3 q-3,-1 -6,1 q2,-2 8,-3 q-3,-1 -6,1 q2,-2 8,-3 q-3,-1 -5,1 q2,-2 8,-3 q-3,-1 -5,0 q2,-2 8,-2 q-3,-1 -5,0 q3,0 7,0 q-2,-2 -5,-2 q5,-2 15,2 q-6,-3 -8,-4 q3,-1 15,3 q-6,-3 -8,-4 q5,-2 15,4 q-6,-3 -3,-3 q3,-2 13,5 q-3,-4 -4,-4 q2,-1 5,4 q-1,-2 -1,-3 q1,-1 4,2 q1,-2 0,-2 q2,-1 4,4 q1,-2 1,-4 q1,-1 3,6 q1,-2 0,-4 q1,-2 2,5 q1,5 -1,8 q-35 -10 -48, -6z" style="fill: url(#browGrad); stroke:url(#browGrad); stroke-width: 1;" gradientUnits="userSpaceOnUse" />
        </g>
      </g>
    <g id="noseDetail">
      <path id="nose" d="M500,350 c-15,20 38,20 24,0" style="fill:none; stroke-width: 2; stroke:#222222; opacity:0.15; stroke-linecap:round" />
      <path id="noseHighlight" d="M500,355 c12,-15 0,-30 12,-32v44" fill="url(#noseHL)" stroke="none" />
      <path id="noseHighlight" d="M500,355 c12,-15 0,-30 12,-32v44" fill="url(#noseHL)" stroke="none" transform="scale(-1,1)" transform-origin="center" />
    </g>
      <path id="noseShadow" d="M493,355 
      c19,-16 0,-35 19,-38 
      c19,3 0,22 19,38" style="fill:none; stroke-width:7.5; stroke:#5c3b2a; opacity:0.25; stroke-linecap:round" />
      <path id="glasses" d="M420,310 Q460,308 495,315C500,310 525,310 530,315Q563,308 605,310 L609,308L608,313L604,316Q602,345 589,358Q549,362 534,354C527,348 527,334 525,326 C521,312 503,312 499,326M525.5,330L526,316" style="fill: none; stroke:url(#glassesGrad); stroke-width: 10;" />
      <path id="glasses" d="M420,310 Q460,308 495,315C500,310 525,310 530,315Q563,308 605,310 L609,308L608,313L604,316Q602,345 589,358Q549,362 534,354C527,348 527,334 525,326 C521,312 503,312 499,326M525.5,330L526,316" style="fill: none; stroke:url(#glassesGrad); stroke-width: 10;" transform="scale(-1, 1)" transform-origin="center" />
      <path id="nosePiercing" d="M500,355 c -11,-5 -10,15 0,9" style="fill:none; stroke-width:2; stroke:#2c205d; stroke-linecap:round" />
    </g>
    <g id="hat" >
      <path id="mainHat" d="M414,270 c-10,-105 206,-105 198,-10 l-3,28 c-8,-35 -186,-35 -192,0z" style="fill: url('#hatGrad'); stroke: url(#hatGrad); stroke-width: 1;" gradientUnits="userSpaceOnUse"/>
      <path id="peak" d="M410,300 c-20,-50 236,-50 206,0 l-4,5 c2,-27 -198,-27 -192,0z" style="fill: #050505; stroke: #000000; stroke-width: 1;" gradientUnits="userSpaceOnUse"/>
    </g>
    <g id="shoulders" transform="translate(0,4)">
      <path id="leftShoulder" d="M340,515 q0,-50 40,-60 l0,60" style="fill: url('#bodyGrad'); stroke: url(#bodyGrad); stroke-width: 1;" gradientUnits="userSpaceOnUse"/>
      <path id="rightShoulder" transform="scale(-1, 1)" transform-origin="center" d="M340,515 q0,-50 40,-60 l0,60" style="fill: url('#bodyGrad'); stroke: url(#bodyGrad); stroke-width: 1;" gradientUnits="userSpaceOnUse"/>
    </g>
    <g id="mac" >
      <path id="macPath" d="M387.5,515 c-10,0 -10,0 -12,-10 l-15,-140 c0,-10 0,-10 15,-10 l275,0 c15,0 15,0 15,10 l-15,140 c0,10 0,10 -15,10z" style="fill: url('#macGrad'); stroke: url(#macGrad); stroke-width: 1;" gradientUnits="userSpaceOnUse" transform="translate(0,4)"/>
      <g id="raspberry" transform="scale(0.9) translate(0,-20)" transform-origin="center">
        <g id="raspLeaves">
          <path id="leftLeaf" d="M510,430 q-20,5 -25,-15 q35,0 30,15" style="fill:#efefef; stroke-width: 1; stroke:#efefef" gradientUnits="userSpaceOnUse" />
          <path id="rightLeaf" transform="scale(-1, 1)" transform-origin="center" d="M510,430 q-20,5 -25,-15 q35,0 30,15" style="fill:#efefef; stroke-width: 1; stroke:#efefef" gradientUnits="userSpaceOnUse" />
        </g>
        <g id="raspMain">
          <circle id="raspberry1" cx="497.5" cy="438" r="9" style="fill:#efefef; stroke-width: 0;" gradientUnits="userSpaceOnUse"/>
          <circle id="raspberry2" cx="510" cy="437.5" r="9" style="fill:#efefef; stroke-width: 0;" gradientUnits="userSpaceOnUse"/>
          <circle id="raspberry3" cx="495" cy="450" r="9" style="fill:#efefef; stroke-width: 0;" gradientUnits="userSpaceOnUse"/>
          <circle id="raspberry4" cx="507" cy="447" r="9" style="fill:#efefef; stroke-width: 0;" gradientUnits="userSpaceOnUse"/>
          <circle id="raspberry5" cx="500" cy="462.5" r="9" style="fill:#efefef; stroke-width: 0;" gradientUnits="userSpaceOnUse"/>
          <circle id="raspberry6" cx="510" cy="460" r="9" style="fill:#efefef; stroke-width: 0;" gradientUnits="userSpaceOnUse"/>
          <circle id="raspberry7" cx="512" cy="470" r="8" style="fill:#efefef; stroke-width: 0;" gradientUnits="userSpaceOnUse"/>
        </g>
        <g id="raspMain2" transform="scale(-1, 1)" transform-origin="center">
          <circle id="raspberry8" cx="497.5" cy="438" r="9" style="fill:#efefef; stroke-width: 0;" gradientUnits="userSpaceOnUse"/>
          <circle id="raspberry9" cx="510" cy="437.5" r="9" style="fill:#efefef; stroke-width: 0;" gradientUnits="userSpaceOnUse"/>
          <circle id="raspberry10" cx="495" cy="450" r="9" style="fill:#efefef; stroke-width: 0;" gradientUnits="userSpaceOnUse"/>
          <circle id="raspberry11" cx="507" cy="447" r="9" style="fill:#efefef; stroke-width: 0;" gradientUnits="userSpaceOnUse"/>
          <circle id="raspberry12" cx="500" cy="462.5" r="9" style="fill:#efefef; stroke-width: 0;" gradientUnits="userSpaceOnUse"/>
          <circle id="raspberry13" cx="510" cy="460" r="9" style="fill:#efefef; stroke-width: 0;" gradientUnits="userSpaceOnUse"/>
        </g>
      </g>
    </g>
    <animate attributeName="opacity" from="0" to="1" dur="2s" begin="strokeAnim4.end" repeatCount="1" fill="freeze" calcMode="linear" />
    <animateTransform id="meAnim" attributType="XML" attributeName="transform" type="scale" values="0;1.4" dur="2s" begin="strokeAnim4.end" repeatCount="1" fill="freeze" />   
  </g>
  </g>


  <!-- LAYER 5 -->

  <g id="layer5" fill="none" stroke="#ffffff"  stroke-width="13" stroke-linecap="round" transform="scale(1.25)" transform-origin="center">
    <path id="nDark" d="M200 698v-125c0 -15 25 -30 45 -15l60,80v-87 M238 698v-87l60,80c20,15 45,0 45,-15v-125" stroke="#333333" transform="translate(-5,5)" stroke-opacity="0" stroke-width="14.5" >
      <animate id="animN" attributeName="stroke-dasharray" values="0% 100%;100% 0%" dur="1.5s" repeatCount="1"  begin="meAnim.end-1s" fill="freeze" />
      <animate attributeName="stroke-opacity" from="0" to="0.35" dur="2s" begin="meAnim.end-1s" repeatCount="1" fill="freeze" calcMode="linear" />
    </path>
    <g stroke-opacity="0" stroke-dasharray="0% 100%" >
      <path id="nLight" d="M200 698v-125c0 -15 25 -30 45 -15l60,80v-87 M238 698v-87l60,80c20,15 45,0 45,-15v-125" />
      <animate id="animN" attributeName="stroke-dasharray" values="0% 100%;100% 0%" dur="1.5s" repeatCount="1"  begin="meAnim.end-1.5s" fill="freeze" />
      <animate attributeName="stroke-opacity" from="0" to="1" dur="2s" begin="meAnim.end-1s" repeatCount="1" fill="freeze" calcMode="linear" />
    </g>

    <path id="jDark" d="M438 551h40c12.5 0 25 12.5 25 25v68c0 71 -140 71 -140 3 M438 590 h20 c5 0 10 5 10 10 v37 c0 38 -68 38 -68 10" stroke="#333333" transform="translate(-5,5)" stroke-opacity="0" stroke-width="14.5" >
      <animate id="animN" attributeName="stroke-dasharray" values="0% 100%;100% 0%" dur="1.5s" repeatCount="1"  begin="meAnim.end-1s" fill="freeze" />
      <animate attributeName="stroke-opacity" from="0" to="0.35" dur="2s" begin="meAnim.end-1s" repeatCount="1" fill="freeze" calcMode="linear" />
    </path>
    <g stroke-dasharray="0% 100%" stroke-opacity="0" >
      <path id="jLight" d="M438 551h40c12.5 0 25 12.5 25 25v68c0 71 -140 71 -140 3 M438 590 h20 c5 0 10 5 10 10 v37 c0 38 -68 38 -68 10" />
      <animate id="animJ" attributeName="stroke-dasharray" values="0% 100%;100% 0%" dur="1.5s" repeatCount="1"  begin="meAnim.end-1s" fill="freeze" />
      <animate attributeName="stroke-opacity" from="0" to="1" dur="2s" begin="meAnim.end-1s" repeatCount="1" fill="freeze" calcMode="linear" />
    </g>

    <path id="tDark" d="M522.5 551h145 M522.5 590 h40c5 0 10 5 10 10 v98 M617.5 698v-98c0 -5 5 -10 10 -10h40" stroke="#333333" transform="translate(-5,5)" stroke-opacity="0" stroke-width="14.5" >
      <animate id="animN" attributeName="stroke-dasharray" values="0% 100%;100% 0%" dur="1.5s" repeatCount="1"  begin="meAnim.end-0.5s" fill="freeze" />
      <animate attributeName="stroke-opacity" from="0" to="0.35" dur="2s" begin="meAnim.end-0.5s" repeatCount="1" fill="freeze" calcMode="linear" />
    </path>
    <g stroke-dasharray="0% 100%" stroke-opacity="0" >
      <path id="tLight" d="M522.5 551h145 M522.5 590 h40c5 0 10 5 10 10 v98 M617.5 698v-98c0 -5 5 -10 10 -10h40" />
      <animate id="animT" attributeName="stroke-dasharray" values="0% 100%;100% 0%" dur="1.5s" repeatCount="1"  begin="meAnim.end-0.5s" fill="freeze" />
      <animate attributeName="stroke-opacity" from="0" to="1" dur="2s" begin="meAnim.end-0.5s" repeatCount="1" fill="freeze" calcMode="linear" />
    </g>

    <path id="dDark" d="M727,551h30c95,15 95,130 15,146h-50c-35,0 -35,0 -35,-35v-76c0,-35 0,-35 35,-35z M732 588 h5c 70,5 70,75 -5,70h-5v-70z" stroke="#333333" transform="translate(-5,5)" stroke-opacity="0" stroke-width="14.5" >
      <animate id="animN" attributeName="stroke-dasharray" values="0% 100%;100% 0%" dur="1s" repeatCount="1"  begin="meAnim.end" fill="freeze" />
      <animate attributeName="stroke-opacity" from="0" to="0.35" dur="2s" begin="meAnim.end-0.5s" repeatCount="1" fill="freeze" calcMode="linear" />
    </path>
    <g stroke-dasharray="0% 100%" stroke-opacity="0" >
      <path id="dLight" d="M727,551h30c95,15 95,130 15,146h-50c-35,0 -35,0 -35,-35v-76c0,-35 0,-35 35,-35z M732 588 h5c 70,5 70,75 -5,70h-5v-70z" />
      <animate id="animD" attributeName="stroke-dasharray" values="0% 100%;100% 0%" dur="1.5s" begin="meAnim.end" repeatCount="1" fill="freeze" />
      <animate attributeName="stroke-opacity" from="0" to="1" dur="2s" begin="meAnim.end-0.5s" repeatCount="1" fill="freeze" calcMode="linear" />
    </g>
  </g>
</svg>