<svg height="1024" viewBox="0 0 1024 1024" width="1024" xmlns="http://www.w3.org/2000/svg" xmlns:xlink="http://www.w3.org/1999/xlink">
  <g id="NJTDTextShadow" fill="none" stroke="#555555"  stroke-width="14.5" stroke-linecap="round" transform="scale(1.18) translate(-5,5)" transform-origin="center">
    <path id="nDark" d="M190 720v-145c0 -18 28 -35 51 -18l69,90v-100 M227 720v-100l69,90c23,18 51,0 51,-17v-145" />
    <path id="jDark" d="M433 551h45c15 0 30 15 30 30v83c2 82 -140 82 -142 0 M433 588 h25 c6 0 12 6 12 12 v64 c-3 33 -65 33 -68 0" />
    <path id="tDark" d="M527.5 551h145 M527.5 588 h43.5c5 0 10 5 10 10 v122 M619.5 720v-122c0 -5 5 -10 10 -10h43.5" />
    <path id="dDark" d="M733,551h30c95,15 95,154 15,175h-50c-35,0 -35,0 -35,-35v-105c0,-35 0,-35 35,-35z M743 589 h5c 65,5 68,99 -5,94h-5c-4 0 -4 0 -4 -4v-86c0 -4 0 -4 4 -4z" />
  </g>
  <g id="NJTDText" fill="none" stroke="#ffffff"  stroke-width="13" stroke-linecap="round" transform="scale(1.18)" transform-origin="center">
    <path id="nLight" d="M190 720v-145c0 -18 28 -35 51 -18l69,90v-100 M227 720v-100l69,90c23,18 51,0 51,-17v-145" />
    <path id="jLight" d="M433 551h45c15 0 30 15 30 30v83c2 82 -140 82 -142 0 M433 588 h25 c6 0 12 6 12 12 v64 c-3 33 -65 33 -68 0" />
    <path id="tLight" d="M527.5 551h145 M527.5 588 h43.5c5 0 10 5 10 10 v122 M619.5 720v-122c0 -5 5 -10 10 -10h43.5" />
    <path id="dLight" d="M733,551h30c95,15 95,154 15,175h-50c-35,0 -35,0 -35,-35v-105c0,-35 0,-35 35,-35z M743 589 h5c 65,5 68,99 -5,94h-5c-4 0 -4 0 -4 -4v-86c0 -4 0 -4 4 -4z" />
  </g>
</svg>
